<!-- Generated by IcoMoon.io -->
<svg version="1.1" xmlns="http://www.w3.org/2000/svg" width="512" height="512" viewBox="0 0 512 512">
<title></title>
<g id="icomoon-ignore">
</g>
<path d="M368 448c-44.112 0-80-35.888-80-80v-48h-64v48c0 44.112-35.888 80-80 80s-80-35.888-80-80 35.888-80 80-80h48v-64h-48c-44.112 0-80-35.888-80-80s35.888-80 80-80 80 35.888 80 80v48h64v-48c0-44.112 35.888-80 80-80s80 35.888 80 80-35.888 80-80 80h-48v64h48c44.112 0 80 35.888 80 80s-35.887 80-80 80zM320 320v48c0 26.467 21.533 48 48 48s48-21.533 48-48-21.533-48-48-48h-48zM144 320c-26.467 0-48 21.533-48 48s21.533 48 48 48 48-21.533 48-48v-48h-48zM224 288h64v-64h-64v64zM320 192h48c26.467 0 48-21.533 48-48s-21.533-48-48-48-48 21.533-48 48v48zM144 96c-26.467 0-48 21.533-48 48s21.533 48 48 48h48v-48c0-26.467-21.532-48-48-48z"></path>
</svg>
