<svg height="512" viewBox="0 0 56 56" width="512" xmlns="http://www.w3.org/2000/svg"><g id="Page-1" fill="none" fill-rule="evenodd"><g id="042---Photo-Editing" fill="rgb(0,0,0)" fill-rule="nonzero" transform="translate(-1)"><path id="Rectangle-path" d="m1 8h2v2h-2z"/><path id="Rectangle-path" d="m1 4h2v2h-2z"/><path id="Rectangle-path" d="m1 12h2v2h-2z"/><path id="Shape" d="m7 0h-5c-.59661794.06161524-1.03807599.58341866-1 1.182v.818h6z"/><path id="Rectangle-path" d="m1 16h2v2h-2z"/><path id="Shape" d="m22.305 27.689 11.139 12.311h7.556v-11.634l-9.971-11.784z"/><path id="Rectangle-path" d="m17 0h6v2h-6z"/><circle id="Oval" cx="18" cy="11" r="2"/><path id="Rectangle-path" d="m1 20h2v2h-2z"/><path id="Shape" d="m41 4h-36v25.238l8.232-9.879c.1853572-.222075.4577965-.3530064.747-.359.2903537-.0079468.5694671.1124049.763.329l6.2 6.854 9.27-11.8c.1858602-.237149.4687406-.3778545.77-.383.3008827-.0081984.5888439.1223243.781.354l9.237 10.917zm-23 11c-2.209139 0-4-1.790861-4-4s1.790861-4 4-4 4 1.790861 4 4c0 1.060866-.4214274 2.0782816-1.1715729 2.8284271s-1.7675611 1.1715729-2.8284271 1.1715729z"/><path id="Rectangle-path" d="m9 0h6v2h-6z"/><path id="Rectangle-path" d="m43 28h14v12h-14z"/><path id="Shape" d="m43 26h14v-22h-14zm3-18h8c.5522847 0 1 .44771525 1 1s-.4477153 1-1 1h-8c-.5522847 0-1-.44771525-1-1s.4477153-1 1-1zm0 4h8c.5522847 0 1 .4477153 1 1s-.4477153 1-1 1h-8c-.5522847 0-1-.4477153-1-1s.4477153-1 1-1zm0 4h8c.5522847 0 1 .4477153 1 1s-.4477153 1-1 1h-8c-.5522847 0-1-.4477153-1-1s.4477153-1 1-1zm0 4h8c.5522847 0 1 .4477153 1 1s-.4477153 1-1 1h-8c-.5522847 0-1-.4477153-1-1s.4477153-1 1-1z"/><path id="Shape" d="m56 0h-31v2h32v-.818c.038076-.59858134-.4033821-1.12038476-1-1.182z"/><path id="Shape" d="m21.618 48-2 4h18.764l-2-4z"/><path id="Shape" d="m14 54c-.5522847 0-1 .4477153-1 1s.4477153 1 1 1h30c.5522847 0 1-.4477153 1-1s-.4477153-1-1-1z"/><path id="Rectangle-path" d="m1 24h2v16h-2z"/><path id="Shape" d="m11 42c-.5522847 0-1-.4477153-1-1s.4477153-1 1-1h19.747l-16.716-18.476-9.031 10.838v7.638h2c.55228475 0 1 .4477153 1 1s-.44771525 1-1 1h-6v2.818c-.03807599.5985813.40338206 1.1203848 1 1.182h54c.5966179-.0616152 1.038076-.5834187 1-1.182v-2.818z"/></g></g></svg>