<svg height="448pt" viewBox="-8 0 448 448" width="448pt" xmlns="http://www.w3.org/2000/svg"><path d="m208 416c17.757812.011719 35.445312-2.25 52.632812-6.71875l11.40625-114.082031c.410157-4.085938 3.851563-7.199219 7.960938-7.199219h32c0-22.089844 17.910156-40 40-40s40 17.910156 40 40h8c10.628906-25.328125 16.070312-52.53125 16-80 0-114.875-93.125-208-208-208s-208 93.125-208 208 93.125 208 208 208zm89.601562-238.398438-22.625 22.535157c-3.125 3.121093-8.1875 3.121093-11.3125 0l-31.664062-31.578125v159.441406c0 4.417969-3.582031 8-8 8h-32c-4.417969 0-8-3.582031-8-8v-159.441406l-31.625 31.578125c-3.121094 3.121093-8.1875 3.121093-11.3125 0l-22.621094-22.535157c-1.507812-1.503906-2.355468-3.542968-2.355468-5.667968 0-2.128906.847656-4.167969 2.355468-5.667969l83.917969-83.921875c3.125-3.121094 8.1875-3.121094 11.3125 0l83.929687 83.921875c1.503907 1.5 2.351563 3.539063 2.351563 5.667969 0 2.125-.847656 4.164062-2.351563 5.667968zm-89.601562-145.601562c97.15625.109375 175.890625 78.84375 176 176 0 4.417969-3.582031 8-8 8s-8-3.582031-8-8c0-88.367188-71.632812-160-160-160s-160 71.632812-160 160 71.632812 160 160 160c4.417969 0 8 3.582031 8 8s-3.582031 8-8 8c-97.203125 0-176-78.796875-176-176s78.796875-176 176-176zm0 0"/><path d="m135.414062 171.894531 11.304688 11.304688 39.632812-39.550781c2.285157-2.277344 5.71875-2.960938 8.699219-1.730469 2.984375 1.230469 4.9375 4.132812 4.949219 7.363281v170.71875h16v-170.71875c0-3.234375 1.949219-6.148438 4.933594-7.386719 2.984375-1.242187 6.425781-.5625 8.714844 1.722657l39.632812 39.582031 11.304688-11.269531-72.585938-72.617188zm0 0"/><path d="m328 288h48c0-13.253906-10.746094-24-24-24s-24 10.746094-24 24zm0 0"/><path d="m416.800781 304h-24.800781v16c0 4.417969-3.582031 8-8 8s-8-3.582031-8-8v-16h-48v16c0 4.417969-3.582031 8-8 8s-8-3.582031-8-8v-16h-24.761719l-14.4375 144h158.398438zm0 0"/></svg>